<svg width="141" height="147" viewBox="0 0 141 147" fill="none" xmlns="http://www.w3.org/2000/svg">
<g filter="url(#filter0_d_42_7)">
<path fill-rule="evenodd" clip-rule="evenodd" d="M52.3573 72.8505C52.3573 68.2256 51.4393 63.815 49.7756 59.7911C59.8312 54.0647 67.8504 45.1737 72.4779 34.4737C70.419 31.1211 69.2317 27.1756 69.2317 22.9529C69.2317 16.4874 72.015 10.6719 76.4488 6.63934C76.193 4.5612 75.8181 2.51994 75.3312 0.522572C77.7848 0.178114 80.2917 0 82.8403 0C86.3468 0 89.7745 0.337172 93.0928 0.980864C95.9052 1.21009 98.5681 1.96715 100.983 3.15283C121.615 10.5849 136.367 30.3331 136.367 53.5266C136.367 83.0885 112.402 107.053 82.8403 107.053C68.641 107.053 55.7331 101.524 46.1519 92.5019C50.0618 86.9417 52.3573 80.1642 52.3573 72.8505Z" fill="#FFEFD0"/>
<circle cx="37.1158" cy="123.928" r="9.0723" fill="#FFEFD0"/>
<path d="M29.5857 118.666C33.5775 111.227 46.5509 92.084 46.5509 92.084L56.8026 92.9912L58.7985 101.519C58.7985 101.519 55.7498 103.464 53.6273 107.416C50.9963 112.315 45.7344 126.649 45.7344 126.649C45.7344 126.649 25.5938 126.105 29.5857 118.666Z" fill="#FFEFD0" stroke="#FFEFD0"/>
<ellipse cx="11.1692" cy="95.5314" rx="6.16917" ry="6.07844" fill="#FFEFD0"/>
<path d="M17.792 62.0546C28.0678 54.9234 49.7266 59.6051 49.7266 59.6051L62.6092 66.7722L53.9905 77.0239C53.9905 77.0239 27.2752 64.6689 19.4251 75.6631C14.8665 82.0473 17.157 95.6221 17.157 95.6221H5.09082C5.09082 95.6221 6.27731 70.0457 17.792 62.0546Z" fill="#FFEFD0" stroke="#FFEFD0"/>
<path fill-rule="evenodd" clip-rule="evenodd" d="M133.023 34.8639C135.185 40.6748 136.367 46.9627 136.367 53.5265C136.367 55.2069 136.289 56.8693 136.138 58.5102C135.713 58.5548 135.283 58.5851 134.85 58.6006C127.087 58.8791 120.261 54.3461 117.209 47.6594C118.732 40.5722 124.906 35.1461 132.481 34.8744C132.662 34.8679 132.843 34.8644 133.023 34.8639Z" fill="#F99129"/>
<path fill-rule="evenodd" clip-rule="evenodd" d="M103.304 2.76897C98.6015 3.63841 94.0879 4.94055 89.7969 6.6267C90.5879 6.41275 91.394 6.22921 92.214 6.07762C99.8718 4.66191 107.388 6.28324 113.522 10.0886C113.35 7.23812 113.347 4.40753 113.505 1.60804C110.129 1.75442 106.722 2.1371 103.304 2.76897Z" fill="#F99129"/>
<path fill-rule="evenodd" clip-rule="evenodd" d="M75.5532 23.1214C75.8579 23.0703 76.1709 23.0437 76.4901 23.0437C79.5707 23.0437 82.0729 25.5201 82.1144 28.5908C81.8097 28.6419 81.4967 28.6685 81.1775 28.6685C78.097 28.6685 75.5948 26.1921 75.5532 23.1214Z" fill="#F99129"/>
<path fill-rule="evenodd" clip-rule="evenodd" d="M101.297 27.6392C99.7569 29.4879 97.4372 30.6644 94.8426 30.6644C92.8383 30.6644 90.998 29.9623 89.5542 28.7906C91.0947 26.9419 93.4145 25.7654 96.009 25.7654C98.0134 25.7654 99.8537 26.4675 101.297 27.6392Z" fill="#2E1400"/>
<path fill-rule="evenodd" clip-rule="evenodd" d="M63.9648 64.7426C66.7513 67.5126 70.7133 70.1321 75.4075 72.0924C86.1336 76.5717 96.6204 75.9127 98.8305 70.6205C101.041 65.3283 94.137 57.4069 83.4109 52.9276C80.5649 51.7391 77.7357 50.9123 75.0735 50.4379L63.9648 64.7426Z" fill="#2E1400"/>
</g>
<defs>
<filter id="filter0_d_42_7" x="0.566895" y="0" width="139.8" height="147" filterUnits="userSpaceOnUse" color-interpolation-filters="sRGB">
<feFlood flood-opacity="0" result="BackgroundImageFix"/>
<feColorMatrix in="SourceAlpha" type="matrix" values="0 0 0 0 0 0 0 0 0 0 0 0 0 0 0 0 0 0 127 0" result="hardAlpha"/>
<feOffset dy="10"/>
<feGaussianBlur stdDeviation="2"/>
<feComposite in2="hardAlpha" operator="out"/>
<feColorMatrix type="matrix" values="0 0 0 0 0 0 0 0 0 0 0 0 0 0 0 0 0 0 0.25 0"/>
<feBlend mode="normal" in2="BackgroundImageFix" result="effect1_dropShadow_42_7"/>
<feBlend mode="normal" in="SourceGraphic" in2="effect1_dropShadow_42_7" result="shape"/>
</filter>
</defs>
</svg>
